<?xml version="1.0" encoding="utf-8"?>
<!-- Generator: Adobe Illustrator 15.0.0, SVG Export Plug-In . SVG Version: 6.00 Build 0)  -->
<!DOCTYPE svg PUBLIC "-//W3C//DTD SVG 1.1//EN" "http://www.w3.org/Graphics/SVG/1.1/DTD/svg11.dtd">
<svg version="1.1" id="Capa_1" xmlns="http://www.w3.org/2000/svg" xmlns:xlink="http://www.w3.org/1999/xlink" x="0px" y="0px"
	 width="140px" height="20px" viewBox="-123.5 24.5 140 20" enable-background="new -123.5 24.5 140 20" xml:space="preserve">
<path fill="none" stroke="#D2D9D9" stroke-width="2" stroke-linecap="round" stroke-linejoin="round" stroke-miterlimit="10" d="
	M-107.5,42.5h-12c-1.1,0-2-0.9-2-2v-12c0-1.1,0.9-2,2-2h12c1.1,0,2,0.9,2,2v12C-105.5,41.6-106.4,42.5-107.5,42.5z"/>
<polyline fill="none" stroke="#D2D9D9" stroke-linecap="round" stroke-linejoin="round" stroke-miterlimit="10" points="
	-121.5,30.5 -113.5,34.5 -105.5,30.5 "/>
<path fill="none" stroke="#D2D9D9" stroke-width="2" stroke-linecap="round" stroke-linejoin="round" stroke-miterlimit="10" d="
	M-85.5,26.5h-2.7l-6.6,6.6c-0.5-0.3-1.2-0.398-1.8-0.398c-2.7,0-4.9,2.199-4.9,4.898c0,2.7,2.2,4.9,4.9,4.9c2.7,0,4.9-2.2,4.9-4.9
	c0-0.6-0.1-1.3-0.4-1.8l6.6-6.6V26.5z"/>
<circle fill="none" stroke="#D2D9D9" stroke-linecap="round" stroke-linejoin="round" stroke-miterlimit="10" cx="-96.4" cy="37.6" r="1"/>
<path fill="none" stroke="#D2D9D9" stroke-width="2" stroke-linecap="round" stroke-linejoin="round" stroke-miterlimit="10" d="
	M-73.499,25.5L-73.499,25.5c2.3,0,3.9,1.9,3.9,4.1v1.7c0,2.3-1.801,4.2-3.9,4.2l0,0c-2.2,0-4-1.9-4-4.1V29.6
	C-77.499,27.4-75.699,25.5-73.499,25.5z"/>
<path fill="none" stroke="#D2D9D9" stroke-width="2" stroke-linecap="round" stroke-linejoin="round" stroke-miterlimit="10" d="
	M-69.898,33.5c1.9,0,3.5,1.4,3.9,3.3l0.4,1.9c0.5,2.5-1.4,4.8-3.9,4.8h-8c-2.6,0-4.4-2.3-3.9-4.8l0.4-1.9c0.4-1.899,2-3.3,3.9-3.3"
	/>
<polygon fill="none" stroke="#D2D9D9" stroke-width="2" stroke-linecap="square" stroke-miterlimit="10" points="-36.6,39.8 
	-41,39.8 -41,35.7 -30.4,26 -26,30 "/>
<line fill="none" stroke="#D2D9D9" stroke-width="2" stroke-linecap="square" stroke-miterlimit="10" x1="-41" y1="43" x2="-26.9" y2="43"/>
<line fill="none" stroke="#D2D9D9" stroke-width="2" stroke-linecap="square" stroke-miterlimit="10" x1="-33.1" y1="28.4" x2="-28.6" y2="32.5"/>
<g id="Search__x28_and_thou_shall_find_x29_">
	<g>
		<path fill="#D2D9D9" d="M-44.8,41.6l-5.4-5.398c0.8-1.102,1.3-2.4,1.3-3.9c0-3.699-3-6.8-6.8-6.8c-3.8,0-6.8,3-6.8,6.8
			c0,3.801,3,6.801,6.8,6.801c1.5,0,2.8-0.5,3.9-1.301l5.399,5.4c0.2,0.199,0.5,0.3,0.801,0.3c0.3,0,0.6-0.101,0.8-0.3
			C-44.4,42.7-44.4,42-44.8,41.6z M-52.1,34.9l-0.4,0.6l-0.6,0.4c-0.801,0.5-1.7,0.8-2.601,0.8c-2.5,0-4.5-2-4.5-4.5s2-4.5,4.5-4.5
			s4.5,2,4.5,4.5C-51.2,33.2-51.5,34.1-52.1,34.9z"/>
	</g>
</g>
<g id="Bookmark_1_">
	<g>
		<path fill="#D2D9D9" d="M-4.838,33.948l-8.086-8.108c-0.218-0.219-0.511-0.34-0.819-0.34h-7.604c-0.637,0-1.153,0.518-1.153,1.154
			v7.598c0,0.305,0.121,0.6,0.338,0.816l8.102,8.095c0.227,0.226,0.521,0.337,0.817,0.337s0.591-0.111,0.818-0.337l7.588-7.581
			C-4.389,35.131-4.387,34.4-4.838,33.948z M-7.603,35.16l-5.244,5.24c-0.219,0.217-0.576,0.217-0.795,0l-6.608-6.604v-5.483
			c0-0.312,0.252-0.563,0.563-0.563h5.49l6.597,6.615C-7.384,34.585-7.384,34.939-7.603,35.16z M-16.313,30
			c-0.934,0-1.688,0.756-1.688,1.688c0,0.933,0.756,1.688,1.688,1.688c0.932,0,1.688-0.756,1.688-1.688
			C-14.626,30.755-15.382,30-16.313,30z"/>
	</g>
</g>
<g id="Bookmark">
	<g>
		<path fill="#D2D9D9" d="M13.167,25H-0.167C-0.903,25-1.5,25.531-1.5,26.188v16.623C-1.5,43.509-0.856,44-0.163,44
			c0.248,0,0.502-0.063,0.736-0.201l5.492-4.215c0.25-0.191,0.62-0.191,0.87,0l5.492,4.215C12.661,43.937,12.915,44,13.163,44
			c0.693,0,1.337-0.491,1.337-1.189V26.188C14.5,25.531,13.904,25,13.167,25z M11.833,40.208L8.24,37.451l-1.305-1.002
			c-0.25-0.192-0.62-0.192-0.871,0l-1.305,1.002l-3.593,2.757V27.969c0-0.328,0.299-0.594,0.667-0.594h9.333
			c0.368,0,0.667,0.266,0.667,0.594V40.208z"/>
	</g>
</g>
</svg>
