<?xml version="1.0" encoding="utf-8"?>
<!-- Generator: Adobe Illustrator 15.0.0, SVG Export Plug-In . SVG Version: 6.00 Build 0)  -->
<!DOCTYPE svg PUBLIC "-//W3C//DTD SVG 1.1//EN" "http://www.w3.org/Graphics/SVG/1.1/DTD/svg11.dtd">
<svg version="1.1" id="Capa_1" xmlns="http://www.w3.org/2000/svg" xmlns:xlink="http://www.w3.org/1999/xlink" x="0px" y="0px"
	 width="105px" height="40px" viewBox="-136 18.5 105 40" enable-background="new -136 18.5 105 40" xml:space="preserve">
<path fill="#E2A644" d="M-99.251,51.236c0,0.583,0.436,1.165,1.162,1.165h2.614c0.581,0,1.162-0.582,1.162-1.165v-3.934
	c0.872-0.728,1.454-1.893,1.454-3.203c0-2.331-1.743-4.079-3.777-4.079s-3.777,1.894-3.777,4.079c0,1.311,0.581,2.476,1.453,3.203
	v3.934H-99.251z M-96.926,42.352c0.87,0,1.596,0.728,1.596,1.748c0,0.582-0.29,1.165-0.871,1.455
	c-0.291,0.147-0.58,0.584-0.58,1.021v3.205h-0.437v-3.205c0-0.437-0.144-0.873-0.58-1.021c-0.581-0.29-0.872-0.873-0.872-1.455
	C-98.525,43.226-97.798,42.352-96.926,42.352z"/>
<path fill="#E2A644" d="M-108.983,57.5h23.966c0.581,0,1.017-0.582,1.017-1.165V36.233c0-0.583-0.436-1.165-1.017-1.165h-21.643
	c-1.161-3.495-0.289-7.429,2.18-10.197c3.631-3.787,9.441-3.932,13.072-0.145c0.144,0.145,2.759,2.913,2.759,2.913l1.597-1.749
	c0,0-2.613-2.913-2.759-2.913c-4.503-4.661-11.766-4.661-16.123,0.146c-2.905,3.058-4.067,7.72-3.05,11.799
	c-0.581,0-1.017,0.583-1.017,1.165v20.101C-110,56.918-109.564,57.5-108.983,57.5z M-86.033,55.17h-21.788V37.399h21.788V55.17z"/>
<path fill="#FCC45A" d="M-81.939,56.5h21.88c0.528,0,1.06-0.555,1.06-1.107V36.146c0-0.555-0.397-1.107-1.06-1.107h-0.531
	c0-1.107,0-2.77,0-2.77c0-6.508-4.643-11.77-10.343-11.77c-5.702,0-10.477,5.262-10.477,11.77v2.77h-0.529
	c-0.531,0-1.061,0.553-1.061,1.107v19.246C-82.869,55.945-82.471,56.5-81.939,56.5z M-60.989,54.285h-19.89V37.254h19.89V54.285z
	 M-79.421,32.27c0-5.262,3.846-9.416,8.487-9.416c4.641,0,8.487,4.293,8.487,9.416c0,0.139,0,1.662,0,2.77h-16.975V32.27z"/>
<path fill="#FCC45A" d="M-73.055,50.407c0,0.555,0.397,1.108,1.06,1.108h2.387c0.531,0,1.062-0.554,1.062-1.108v-3.6
	c0.796-0.692,1.325-1.8,1.325-3.046c0-2.215-1.591-3.877-3.446-3.877c-1.858,0-3.449,1.8-3.449,3.877
	c0,1.246,0.531,2.354,1.327,3.046v3.6H-73.055z M-70.934,42.1c0.794,0,1.458,0.692,1.458,1.662c0,0.554-0.264,1.107-0.795,1.384
	c-0.266,0.14-0.531,0.555-0.531,0.97v3.047h-0.397v-3.047c0-0.415-0.266-0.83-0.53-0.97c-0.531-0.276-0.797-0.83-0.797-1.384
	C-72.392,42.931-71.729,42.1-70.934,42.1z"/>
<path fill="#FCC45A" d="M-125.078,50.546c0,0.554,0.402,1.107,1.073,1.107h2.413c0.536,0,1.073-0.554,1.073-1.107v-3.738
	c0.805-0.692,1.341-1.8,1.341-3.046c0-2.215-1.609-3.877-3.486-3.877c-1.878,0-3.487,1.8-3.487,3.877
	c0,1.246,0.536,2.354,1.341,3.046v3.738H-125.078z M-122.932,42.1c0.803,0,1.474,0.692,1.474,1.662c0,0.554-0.269,1.107-0.805,1.384
	c-0.268,0.14-0.535,0.555-0.535,0.97v3.047h-0.27v-3.047c0-0.415-0.134-0.83-0.535-0.97c-0.537-0.276-0.805-0.83-0.805-1.384
	C-124.408,42.931-123.737,42.1-122.932,42.1z"/>
<path fill="#FCC45A" d="M-134.061,56.5h22.122c0.537,0,0.939-0.555,0.939-1.107V36.285c0-0.554-0.402-1.107-0.939-1.107h-19.978
	c-1.072-3.323-0.267-7.063,2.012-9.693c3.352-3.6,8.714-3.738,12.066-0.138c0.134,0.138,2.548,2.769,2.548,2.769l1.474-1.661
	c0,0-2.413-2.77-2.547-2.77c-4.156-4.292-10.86-4.292-14.883,0.277c-2.681,2.907-3.754,7.338-2.815,11.216
	c-0.537,0-0.939,0.554-0.939,1.107v19.107C-135,55.945-134.598,56.5-134.061,56.5z M-112.877,54.285h-20.111V37.393h20.111V54.285z"
	/>
<path fill="#E2A644" d="M-56.852,57.5h23.704c0.572,0,1.148-0.586,1.148-1.169V36.016c0-0.585-0.431-1.169-1.148-1.169h-0.576
	c0-1.169,0-2.923,0-2.923c0-6.87-5.029-12.424-11.205-12.424c-6.177,0-11.35,5.554-11.35,12.424v2.923h-0.574
	c-0.574,0-1.148,0.584-1.148,1.169v20.315C-57.857,56.914-57.426,57.5-56.852,57.5z M-34.155,55.162h-21.547V37.185h21.547V55.162z
	 M-54.123,31.924c0-5.555,4.166-9.939,9.194-9.939c5.027,0,9.195,4.531,9.195,9.939c0,0.146,0,1.754,0,2.923h-18.389V31.924z"/>
<path fill="#E2A644" d="M-47.226,51.068c0,0.586,0.431,1.17,1.148,1.17h2.586c0.575,0,1.15-0.584,1.15-1.17V47.27
	c0.862-0.731,1.436-1.9,1.436-3.216c0-2.338-1.724-4.092-3.733-4.092c-2.013,0-3.737,1.899-3.737,4.092
	c0,1.315,0.576,2.484,1.438,3.216v3.799H-47.226z M-44.928,42.3c0.86,0,1.58,0.73,1.58,1.754c0,0.585-0.286,1.169-0.861,1.461
	c-0.288,0.147-0.575,0.586-0.575,1.023v3.217h-0.431v-3.217c0-0.438-0.288-0.876-0.574-1.023c-0.576-0.292-0.863-0.876-0.863-1.461
	C-46.508,43.177-45.79,42.3-44.928,42.3z"/>
</svg>
