<?xml version="1.0" encoding="utf-8"?>
<!-- Generator: Adobe Illustrator 15.0.0, SVG Export Plug-In . SVG Version: 6.00 Build 0)  -->
<!DOCTYPE svg PUBLIC "-//W3C//DTD SVG 1.1//EN" "http://www.w3.org/Graphics/SVG/1.1/DTD/svg11.dtd">
<svg version="1.1" id="Layer_1" xmlns="http://www.w3.org/2000/svg" xmlns:xlink="http://www.w3.org/1999/xlink" x="0px" y="0px"
	 width="80px" height="40px" viewBox="-123.5 24.5 80 40" enable-background="new -123.5 24.5 80 40" xml:space="preserve">
<path fill="#C3C2B9" d="M-108.5,27.5c-0.3-0.6-0.7-1-1.3-1h-7.5c-0.6,0-0.9,0.4-1.2,1l-4,7v7c0,0.6,0.4,1,1,1h16c0.6,0,1-0.4,1-1v-7
	L-108.5,27.5z M-116.8,28.5h6.5l2.9,5h-3.6c-0.3,0-0.5,0.2-0.5,0.5v0.4c0,1-0.8,2-1.8,2.1c-1.2,0.1-2.2-0.8-2.2-2V34
	c0-0.3-0.2-0.5-0.5-0.5h-3.6L-116.8,28.5z M-107,40.5h-13c-0.3,0-0.5-0.2-0.5-0.5v-4.5h3.1c0.4,1.7,2,3,3.9,3s3.4-1.3,3.9-3h3.1V40
	C-106.5,40.3-106.7,40.5-107,40.5z"/>
<path fill="#C3C2B9" d="M-45.8,31l-7.2,7.5l0,0h-4.5V34l7.5-7.2c0.2-0.2,0.398-0.3,0.7-0.3c0.3,0,0.5,0.1,0.698,0.3l2.802,2.8
	C-45.4,30-45.4,30.6-45.8,31z M-49.3,28.9l-6.2,5.899v1.7h1.7l5.899-6.2L-49.3,28.9z M-56.5,28.5H-59c-0.3,0-0.5,0.2-0.5,0.5v11
	c0,0.3,0.2,0.5,0.5,0.5h11c0.3,0,0.5-0.2,0.5-0.5v-2.5c0-0.6,0.398-1,1-1c0.6,0,1,0.4,1,1v4c0,0.6-0.4,1-1,1h-14c-0.602,0-1-0.4-1-1
	v-14c0-0.6,0.398-1,1-1h4c0.6,0,1,0.4,1,1S-55.9,28.5-56.5,28.5z"/>
<path fill="#7D63E6" d="M-108.5,47.5c-0.3-0.6-0.7-1-1.3-1h-7.5c-0.6,0-0.9,0.4-1.2,1l-4,7v7c0,0.6,0.4,1,1,1h16c0.6,0,1-0.4,1-1v-7
	L-108.5,47.5z M-116.8,48.5h6.5l2.9,5h-3.6c-0.3,0-0.5,0.2-0.5,0.5v0.4c0,1-0.8,2-1.8,2.1c-1.2,0.1-2.2-0.8-2.2-2V54
	c0-0.3-0.2-0.5-0.5-0.5h-3.6L-116.8,48.5z M-107,60.5h-13c-0.3,0-0.5-0.2-0.5-0.5v-4.5h3.1c0.4,1.7,2,3,3.9,3s3.4-1.3,3.9-3h3.1V60
	C-106.5,60.3-106.7,60.5-107,60.5z"/>
<path fill="#7D63E6" d="M-45.8,51l-7.2,7.5l0,0h-4.5V54l7.5-7.2c0.2-0.2,0.5-0.3,0.7-0.3c0.3,0,0.5,0.1,0.698,0.3l2.802,2.8
	C-45.4,50-45.4,50.6-45.8,51z M-49.3,48.9l-6.2,5.899v1.7h1.7l5.899-6.2L-49.3,48.9z M-56.5,48.5H-59c-0.3,0-0.5,0.2-0.5,0.5v11
	c0,0.3,0.2,0.5,0.5,0.5h11c0.3,0,0.5-0.2,0.5-0.5v-2.5c0-0.6,0.398-1,1-1c0.6,0,1,0.4,1,1v4c0,0.6-0.4,1-1,1h-14c-0.602,0-1-0.4-1-1
	v-14c0-0.6,0.398-1,1-1h4c0.6,0,1,0.4,1,1S-55.9,48.5-56.5,48.5z"/>
<path fill="none" stroke="#C3C2B9" stroke-width="2" stroke-linecap="round" stroke-linejoin="round" stroke-miterlimit="10" d="
	M-93.498,26.5L-93.498,26.5c2.305,0,3.908,1.689,3.908,3.645v1.512c0,2.045-1.805,3.732-3.908,3.732l0,0
	c-2.205,0-4.01-1.688-4.01-3.645v-1.6C-97.506,28.189-95.703,26.5-93.498,26.5z"/>
<path fill="none" stroke="#C3C2B9" stroke-width="2" stroke-linecap="round" stroke-linejoin="round" stroke-miterlimit="10" d="
	M-89.89,33.611c1.904,0,3.508,1.244,3.908,2.933l0.401,1.688c0.501,2.224-1.403,4.268-3.909,4.268h-8.018
	c-2.605,0-4.41-2.044-3.908-4.268l0.4-1.688c0.399-1.688,2.004-2.933,3.908-2.933"/>
<g id="Bookmark_1_">
	<g>
		<path fill="#C3C2B9" d="M-65.8,34.01l-7.188-7.208c-0.191-0.194-0.453-0.302-0.727-0.302h-6.76c-0.565,0-1.025,0.459-1.025,1.025
			v6.754c0,0.271,0.107,0.533,0.301,0.727l7.201,7.194c0.201,0.2,0.463,0.3,0.727,0.3c0.265,0,0.524-0.1,0.728-0.3l6.745-6.739
			C-65.401,35.061-65.399,34.411-65.8,34.01z M-68.257,35.086l-4.662,4.658c-0.194,0.193-0.511,0.193-0.706,0l-5.875-5.869V29
			c0-0.275,0.225-0.5,0.5-0.5h4.882l5.862,5.88C-68.063,34.575-68.063,34.891-68.257,35.086z M-76,30.5
			c-0.829,0-1.501,0.672-1.501,1.5s0.672,1.5,1.501,1.5c0.828,0,1.5-0.672,1.5-1.5C-74.5,31.171-75.172,30.5-76,30.5z"/>
	</g>
</g>
<g id="Bookmark_2_">
	<g>
		<path fill="#7D63E6" d="M-65.8,54.01l-7.188-7.207c-0.191-0.195-0.453-0.303-0.727-0.303h-6.76c-0.565,0-1.025,0.459-1.025,1.025
			v6.754c0,0.271,0.107,0.533,0.301,0.727l7.201,7.193c0.201,0.201,0.463,0.301,0.727,0.301c0.265,0,0.524-0.1,0.728-0.301
			l6.745-6.738C-65.401,55.061-65.399,54.41-65.8,54.01z M-68.256,55.086l-4.663,4.658c-0.194,0.193-0.511,0.193-0.706,0
			l-5.875-5.869V49c0-0.275,0.225-0.5,0.5-0.5h4.882l5.862,5.881C-68.061,54.574-68.061,54.891-68.256,55.086z M-76,50.5
			c-0.829,0-1.501,0.672-1.501,1.5s0.672,1.5,1.501,1.5c0.828,0,1.5-0.672,1.5-1.5C-74.5,51.171-75.172,50.5-76,50.5z"/>
	</g>
</g>
<path fill="none" stroke="#7D63E6" stroke-width="2" stroke-linecap="round" stroke-linejoin="round" stroke-miterlimit="10" d="
	M-93.498,46.5L-93.498,46.5c2.305,0,3.908,1.689,3.908,3.645v1.513c0,2.045-1.805,3.731-3.908,3.731l0,0
	c-2.205,0-4.01-1.688-4.01-3.645v-1.6C-97.506,48.189-95.703,46.5-93.498,46.5z"/>
<path fill="none" stroke="#7D63E6" stroke-width="2" stroke-linecap="round" stroke-linejoin="round" stroke-miterlimit="10" d="
	M-89.89,53.611c1.904,0,3.508,1.244,3.908,2.934l0.401,1.688c0.501,2.223-1.403,4.268-3.909,4.268h-8.018
	c-2.605,0-4.41-2.045-3.908-4.268l0.4-1.688c0.399-1.688,2.004-2.935,3.908-2.935"/>
</svg>
